<svg width="80" height="80" viewBox="0 0 80 80" fill="none" xmlns="http://www.w3.org/2000/svg">
  <!-- Sombra da coluna -->
  <ellipse cx="40" cy="73" rx="30" ry="3" fill="#32383B" fill-opacity="0.2"/>
  
  <!-- Base da coluna (parte inferior) -->
  <path d="M15 64H65V69C65 70.1046 64.1046 71 63 71H17C15.8954 71 15 70.1046 15 69V64Z" fill="url(#paint0_linear)"/>
  
  <!-- Detalhes decorativos da base -->
  <rect x="18" y="65" width="44" height="1" fill="#FFF" fill-opacity="0.3"/>
  <rect x="18" y="68" width="44" height="1" fill="#FFF" fill-opacity="0.3"/>
  
  <!-- Base da coluna (parte superior - plinto) -->
  <path d="M17 59H63C64.1046 59 65 59.8954 65 61V64H15V61C15 59.8954 15.8954 59 17 59Z" fill="url(#paint1_linear)"/>
  
  <!-- Fuste da coluna (corpo) -->
  <path d="M20 16C20 14.8954 20.8954 14 22 14H58C59.1046 14 60 14.8954 60 16V59H20V16Z" fill="url(#paint2_linear)"/>
  
  <!-- Caneluras (detalhes verticais) na coluna -->
  <rect x="25" y="14" width="2" height="45" fill="#C96332" fill-opacity="0.7"/>
  <rect x="32" y="14" width="2" height="45" fill="#C96332" fill-opacity="0.7"/>
  <rect x="39" y="14" width="2" height="45" fill="#C96332" fill-opacity="0.7"/>
  <rect x="46" y="14" width="2" height="45" fill="#C96332" fill-opacity="0.7"/>
  <rect x="53" y="14" width="2" height="45" fill="#C96332" fill-opacity="0.7"/>
  
  <!-- Anel superior da coluna (astragal) -->
  <path d="M19 16C19 14.3431 20.3431 13 22 13H58C59.6569 13 61 14.3431 61 16V17H19V16Z" fill="url(#paint3_linear)"/>
  
  <!-- Capitel da coluna -->
  <path d="M17 8C17 6.89543 17.8954 6 19 6H61C62.1046 6 63 6.89543 63 8V13H17V8Z" fill="url(#paint4_linear)"/>
  
  <!-- Detalhes do capitel -->
  <path d="M16 8C16 6.34315 17.3431 5 19 5H61C62.6569 5 64 6.34315 64 8V9H16V8Z" fill="url(#paint5_linear)"/>
  
  <!-- Ãbaco (topo do capitel) -->
  <path d="M13 5C13 3.89543 13.8954 3 15 3H65C66.1046 3 67 3.89543 67 5V6C67 7.10457 66.1046 8 65 8H15C13.8954 8 13 7.10457 13 6V5Z" fill="url(#paint6_linear)"/>
  
  <!-- Detalhes decorativos do capitel -->
  <rect x="18" y="6" width="44" height="1" fill="#FFF" fill-opacity="0.4"/>
  <rect x="18" y="10" width="44" height="1" fill="#FFF" fill-opacity="0.3"/>
  <rect x="16" y="4" width="48" height="1" fill="#FFF" fill-opacity="0.5"/>

  <!-- Gradientes e sombras -->
  <defs>
    <linearGradient id="paint0_linear" x1="40" y1="64" x2="40" y2="71" gradientUnits="userSpaceOnUse">
      <stop stop-color="#D9916F"/>
      <stop offset="1" stop-color="#C96332"/>
    </linearGradient>
    <linearGradient id="paint1_linear" x1="40" y1="59" x2="40" y2="64" gradientUnits="userSpaceOnUse">
      <stop stop-color="#C96332"/>
      <stop offset="1" stop-color="#B85527"/>
    </linearGradient>
    <linearGradient id="paint2_linear" x1="40" y1="14" x2="40" y2="59" gradientUnits="userSpaceOnUse">
      <stop stop-color="#D9916F"/>
      <stop offset="0.3" stop-color="#C96332"/>
      <stop offset="1" stop-color="#B85527"/>
    </linearGradient>
    <linearGradient id="paint3_linear" x1="40" y1="13" x2="40" y2="17" gradientUnits="userSpaceOnUse">
      <stop stop-color="#D9916F"/>
      <stop offset="1" stop-color="#C96332"/>
    </linearGradient>
    <linearGradient id="paint4_linear" x1="40" y1="6" x2="40" y2="13" gradientUnits="userSpaceOnUse">
      <stop stop-color="#D9916F"/>
      <stop offset="1" stop-color="#C96332"/>
    </linearGradient>
    <linearGradient id="paint5_linear" x1="40" y1="5" x2="40" y2="9" gradientUnits="userSpaceOnUse">
      <stop stop-color="#D9916F"/>
      <stop offset="1" stop-color="#C96332"/>
    </linearGradient>
    <linearGradient id="paint6_linear" x1="40" y1="3" x2="40" y2="8" gradientUnits="userSpaceOnUse">
      <stop stop-color="#D9916F"/>
      <stop offset="1" stop-color="#C96332"/>
    </linearGradient>
  </defs>
</svg> 